<svg xmlns="http://www.w3.org/2000/svg" viewBox="0 0 799.35 799.35"><defs><style>.cls-1{fill:#fff;}</style></defs><g id="Layer_2" data-name="Layer 2"><g id="Layer_1-2" data-name="Layer 1"><circle cx="399.68" cy="399.68" r="399.68"/><g id="Layer_3" data-name="Layer 3"><path class="cls-1" d="M613.68,351.39c-.54,16.45-11,29.57-23.75,29.57H542.37c-12.79,0-23.21-13.12-23.75-29.57,0,.34,0,.69,0,1V542.68c0,.26,0,.52,0,.78v0a23.77,23.77,0,0,0,23.76,23h47.56a23.78,23.78,0,0,0,23.76-23v0c0-.26,0-.52,0-.78V352.43C613.71,352.08,613.7,351.73,613.68,351.39ZM423.46,233.53H375.9a23.78,23.78,0,0,0-23.78,23.78V542.68a23.78,23.78,0,0,0,23.78,23.79h47.56a23.79,23.79,0,0,0,23.78-23.79V257.31A23.78,23.78,0,0,0,423.46,233.53ZM257,400H209.43c-23.78,0-23.78,0-23.78,23.78V566.47a23.79,23.79,0,0,1,23.78-23.79H257a23.78,23.78,0,0,1,23.78,23.79V423.78C280.77,400,280.77,400,257,400Z"/><path class="cls-1" d="M613.71,350V535.55c0,2.9,0,5.53,0,7.91v0c-.19,23-2.23,23-23.76,23H542.37c-21.53,0-23.57,0-23.76-23v0c0-2.38,0-5,0-7.91V350q0,.68,0,1.35c.54,16.45,11,29.57,23.75,29.57h47.56c12.78,0,23.21-13.12,23.75-29.57Q613.71,350.72,613.71,350Z"/></g></g></g></svg>