<svg xmlns="http://www.w3.org/2000/svg" viewBox="0 0 428.06 332.94"><g id="Layer_2" data-name="Layer 2"><g id="Layer_5" data-name="Layer 5"><path d="M428,117.86c-.54,16.45-11,29.57-23.75,29.57H356.72c-12.79,0-23.21-13.12-23.75-29.57,0,.34,0,.69,0,1V309.15c0,.26,0,.52,0,.78V310a23.77,23.77,0,0,0,23.76,23h47.56A23.78,23.78,0,0,0,428,310v-.05c0-.26,0-.52,0-.78V118.9C428.06,118.55,428.05,118.2,428,117.86ZM237.81,0H190.25a23.78,23.78,0,0,0-23.78,23.78V309.15a23.78,23.78,0,0,0,23.78,23.79h47.56a23.79,23.79,0,0,0,23.78-23.79V23.78A23.78,23.78,0,0,0,237.81,0ZM71.34,166.47H23.78C0,166.47,0,166.47,0,190.25V332.94a23.79,23.79,0,0,1,23.78-23.79H71.34a23.78,23.78,0,0,1,23.78,23.79V190.25C95.12,166.47,95.12,166.47,71.34,166.47Z"/><path d="M428.06,116.51V302c0,2.9,0,5.53,0,7.91V310c-.19,23-2.23,23-23.76,23H356.72c-21.53,0-23.57,0-23.76-23v-.05c0-2.38,0-5,0-7.91V116.51q0,.67,0,1.35c.54,16.45,11,29.57,23.75,29.57h47.56c12.78,0,23.21-13.12,23.75-29.57Q428.06,117.19,428.06,116.51Z"/></g></g></svg>